# xmcd
#
# Track frame offsets:
#	150
#	15195
#	27470
#	37895
#	48022
#	57180
#	68565
#	79417
#	91232
#	103485
#	117537
#	128815
#
# Disc length: 1888 seconds
#
# Revision: 2
# Processed by: cddbd v1.5.1PL0 Copyright (c) Steve Scherf et al.
# Submitted via: dBpowerAMP V4.0
#
DISCID=95075e0c
DTITLE=Jim Reeves - All Time Greatest Hits, Disc 2 
DYEAR=1900
DGENRE=Country
TTITLE0=Blue Side Of Lonesome
TTITLE1=Pride Goes Before A Fall
TTITLE2=Look Behind You, I'll Be There
TTITLE3=Is It Really Over
TTITLE4=I Won't Forget You
TTITLE5=Adios Amigo
TTITLE6=Welcome To My World
TTITLE7=In The Misty Moonlight
TTITLE8=A Letter To My Heart
TTITLE9=This Is It
TTITLE10=Anna Marie
TTITLE11=Distant Drums
EXTD=
EXTT0=
EXTT1=
EXTT2=
EXTT3=
EXTT4=
EXTT5=
EXTT6=
EXTT7=
EXTT8=
EXTT9=
EXTT10=
EXTT11=
PLAYORDER=
